# xmcd
# Track frame offsets:
# 150
# 14461
# 32456
# 43911
# 57650
# 76087
# 88412
# 104234
# 117254
# 135053
#
# Disc length: 1959 seconds
# Revision: 0
# Processed by: cddbd v1.5.2PL0 Copyright (c) Steve Scherf et al.
# Submitted via: VisiTrax 2.11.2.271 - For more info visit www.synapsa.com
#
DISCID=8207a50a
DTITLE=Highwaymen - Highwayman [CD2)
DYEAR=2010
DGENRE=
TTITLE0=Silver Stallion
TTITLE1=Born And Raised in Black And White
TTITLE2=Two Stories Wide
TTITLE3=We're All in Your Corner
TTITLE4=American Remains
TTITLE5=Anthem '84
TTITLE6=Angels Love Bad Men
TTITLE7=Songs That Make A Difference
TTITLE8=Living Legend
TTITLE9=Texas
EXTD=
EXTT0=
EXTT1=
EXTT2=
EXTT3=
EXTT4=
EXTT5=
EXTT6=
EXTT7=
EXTT8=
EXTT9=
PLAYORDER=
